<?xml version="1.0" standalone="no"?>
<!DOCTYPE svg PUBLIC "-//W3C//DTD SVG 20010904//EN"
 "http://www.w3.org/TR/2001/REC-SVG-20010904/DTD/svg10.dtd">
<svg version="1.0" xmlns="http://www.w3.org/2000/svg"
 width="1386.000000pt" height="1386.000000pt" viewBox="0 0 1386.000000 1386.000000"
 preserveAspectRatio="xMidYMid meet">
<metadata>
Created by potrace 1.14, written by Peter Selinger 2001-2017
</metadata>
<g transform="translate(0.000000,1386.000000) scale(0.100000,-0.100000)"
fill="#000000" stroke="none">
<path d="M6695 13849 c-22 -4 -65 -17 -95 -29 -51 -20 -678 -335 -815 -410
-33 -18 -89 -48 -125 -68 -60 -32 -579 -324 -618 -347 -247 -148 -218 -130
-447 -274 -206 -130 -446 -292 -585 -395 -52 -39 -99 -74 -105 -78 -31 -23
-242 -194 -273 -221 -161 -142 -192 -174 -307 -312 -49 -59 -94 -113 -100
-119 -6 -6 -27 -31 -47 -56 -37 -45 -37 -46 -36 -140 0 -167 8 -150 -67 -150
-60 0 -65 -2 -66 -22 0 -13 -2 -41 -3 -63 -2 -22 -6 -89 -10 -150 -8 -124 -14
-214 -21 -295 -3 -30 -7 -91 -10 -135 -3 -44 -8 -100 -10 -125 -2 -25 -7 -79
-10 -120 -4 -41 -8 -86 -10 -100 -2 -14 -6 -59 -10 -100 -3 -41 -7 -91 -10
-110 -2 -19 -7 -64 -10 -100 -4 -36 -8 -76 -10 -90 -2 -14 -6 -54 -9 -90 -3
-36 -8 -74 -10 -85 -2 -11 -7 -47 -10 -80 -7 -62 -11 -98 -21 -175 -11 -87
-16 -125 -20 -150 -2 -14 -7 -49 -10 -79 -4 -30 -8 -63 -11 -74 -2 -10 -6 -45
-10 -76 -3 -31 -8 -58 -9 -61 -15 -25 -19 -226 -20 -900 l0 -786 80 -94 c44
-52 88 -104 97 -115 9 -11 26 -31 37 -44 12 -13 21 -27 22 -30 0 -3 2 -91 3
-196 2 -170 5 -199 28 -275 47 -157 67 -235 74 -285 4 -27 8 -59 10 -70 2 -11
7 -40 10 -64 8 -64 23 -144 29 -150 3 -2 24 6 47 19 l42 23 -33 -45 -32 -44 6
-100 c9 -153 15 -235 20 -284 3 -25 8 -64 10 -87 10 -87 17 -140 30 -208 36
-193 69 -279 115 -302 27 -13 73 4 84 32 7 19 17 91 20 153 4 61 25 128 46
147 17 15 17 13 13 -28 -5 -44 5 -64 43 -85 13 -7 12 -14 -5 -53 -21 -45 -25
-78 -15 -116 6 -22 85 -63 123 -63 12 0 21 -4 21 -8 0 -15 -72 -95 -194 -217
-66 -66 -120 -122 -119 -125 1 -3 4 -61 7 -130 6 -122 9 -155 21 -290 4 -36 8
-85 10 -110 5 -69 15 -171 20 -207 3 -18 7 -57 11 -85 3 -29 10 -80 14 -112 5
-32 7 -63 4 -67 -3 -5 -1 -9 4 -9 5 0 8 -16 7 -35 0 -19 2 -35 5 -35 3 0 7
-15 8 -32 1 -18 9 -71 18 -118 27 -146 32 -172 48 -255 3 -11 14 -63 26 -115
12 -52 23 -104 26 -116 13 -69 116 -415 136 -460 5 -11 7 -51 4 -90 -11 -139
-6 -462 9 -584 3 -25 8 -81 10 -125 7 -116 15 -192 26 -227 5 -18 7 -34 4 -36
-2 -3 2 -17 11 -33 8 -16 15 -32 15 -36 3 -21 15 -40 39 -64 47 -46 105 -28
202 63 l58 54 31 -32 30 -31 -60 -63 c-34 -35 -61 -66 -61 -69 0 -3 62 -70
138 -147 l137 -142 30 25 c17 14 62 55 101 92 39 36 112 104 163 151 51 47
109 101 130 120 117 110 202 185 211 186 6 1 11 2 13 4 1 1 10 3 19 5 10 2 46
13 81 24 l64 22 2 52 c4 86 8 119 18 126 5 3 19 20 31 38 13 18 67 75 120 128
l98 95 -1 765 0 765 33 11 c17 6 33 16 33 22 1 7 2 86 3 176 l1 165 -31 18
c-31 18 -32 21 -32 91 0 129 1 125 -34 143 -129 67 -390 -131 -714 -541 -43
-56 -88 -113 -99 -129 -38 -53 -217 -291 -233 -309 -8 -9 -17 -15 -19 -13 -4
3 35 82 50 101 4 5 33 48 64 95 78 119 313 427 342 450 4 3 25 28 46 55 22 28
47 57 55 65 8 8 40 44 70 80 30 35 69 79 85 96 78 84 72 69 69 187 l-2 107
114 0 c63 0 114 3 114 8 0 4 15 23 33 43 17 20 43 49 56 65 13 16 33 39 45 52
20 23 21 31 21 475 l1 452 -32 55 c-24 41 -32 68 -32 103 0 45 -9 62 -155 280
-192 287 -227 322 -338 333 -129 12 -278 -62 -455 -229 l-62 -58 -31 45 c-17
25 -35 48 -40 51 -21 12 -148 -49 -249 -119 -59 -41 -112 -79 -117 -84 -6 -5
-41 -29 -79 -55 l-69 -46 -20 25 c-10 14 -41 37 -67 52 l-49 28 77 80 c96 101
136 170 134 235 0 27 -7 58 -14 71 -7 13 -13 52 -13 88 -2 132 -74 197 -182
165 -48 -15 -51 -11 -23 25 11 14 20 28 20 32 0 3 -16 23 -35 42 -19 20 -35
39 -35 42 0 3 12 25 26 49 l25 44 -39 39 c-76 76 -153 212 -181 319 -27 99
-10 233 53 418 41 121 55 168 91 308 16 59 33 108 39 108 24 3 106 7 197 9 93
2 100 1 240 -50 79 -28 200 -73 269 -99 123 -47 242 -88 330 -112 25 -7 47
-13 50 -14 3 -1 23 -7 45 -13 22 -6 51 -13 65 -16 14 -2 25 -5 25 -6 0 -2 19
-6 60 -13 17 -3 41 -8 55 -11 14 -3 43 -8 65 -10 22 -3 51 -8 65 -11 14 -4
106 -8 205 -10 99 -2 187 -5 195 -9 25 -9 144 -47 160 -51 17 -4 121 -36 191
-58 44 -14 46 -13 75 11 29 25 127 110 219 192 71 63 179 158 250 220 58 50
67 71 44 95 -5 5 -9 17 -9 27 0 19 -10 21 -75 19 l-40 -1 28 26 c19 17 26 32
22 43 -4 9 -12 29 -17 44 l-10 28 -200 -5 -200 -5 -97 72 c-53 39 -226 168
-386 287 -159 118 -313 232 -341 253 l-52 37 -235 5 -235 5 -93 -102 c-132
-143 -121 -135 -193 -138 -56 -3 -68 -1 -63 14 3 8 3 17 -1 21 -4 4 -8 15 -8
26 -1 10 -2 26 -3 34 0 8 -7 15 -14 15 -8 0 -13 12 -13 28 -1 15 -1 42 -2 60
l-2 32 -78 0 -77 0 -110 -110 -110 -111 -45 3 -45 4 2 37 c1 36 39 90 118 173
11 11 40 44 65 74 25 29 57 67 72 84 24 26 78 169 78 204 0 8 56 66 134 137
16 15 30 37 32 48 2 12 10 52 18 88 8 36 17 77 20 90 2 13 9 36 14 50 6 15 8
30 5 33 -4 3 0 6 7 6 7 0 11 3 7 6 -3 3 9 48 28 100 18 52 30 94 27 94 -3 0
-20 -12 -39 -26 -19 -14 -36 -24 -38 -22 -3 2 7 35 20 73 14 37 24 70 22 72
-2 2 -15 -6 -28 -17 -30 -25 -31 -25 -104 -80 -33 -24 -65 -49 -72 -55 -17
-14 -22 -18 -178 -139 -156 -122 -406 -328 -475 -392 -25 -23 -57 -52 -71 -63
l-26 -20 -22 21 c-17 15 -21 27 -16 47 4 14 11 28 16 29 5 2 9 8 9 14 0 9 73
104 91 118 3 3 29 33 57 67 45 54 52 68 57 120 4 32 10 86 15 121 l8 62 127
124 c125 123 316 304 365 346 14 12 42 36 63 53 21 18 44 37 50 42 7 6 26 21
44 33 l32 23 16 -31 c16 -30 81 -99 97 -101 13 -2 22 -5 40 -13 27 -12 100 0
147 25 25 13 134 113 259 238 258 257 295 292 313 294 8 2 19 5 24 8 6 4 28
10 50 14 22 5 42 9 45 10 3 1 22 5 43 9 l38 8 -6 233 -6 233 23 8 c46 14 128
74 153 113 52 78 26 163 -79 254 -41 35 -79 56 -146 80 -49 17 -90 34 -90 37
0 6 223 137 290 170 25 13 48 28 52 34 4 6 8 7 8 2 0 -4 11 -1 25 8 13 9 35
18 47 20 13 3 25 5 28 6 7 3 59 -1 83 -6 10 -2 36 -19 58 -39 21 -19 46 -35
54 -35 8 0 19 -8 24 -19 6 -10 19 -21 30 -24 56 -14 108 89 115 228 2 43 5 50
22 47 10 -2 26 -9 34 -15 40 -31 62 -36 144 -33 47 2 86 0 86 -4 0 -13 70
-114 92 -132 11 -10 28 -18 39 -18 10 0 30 -11 45 -25 74 -68 116 0 149 240
15 110 24 145 53 198 14 26 29 47 34 47 11 0 49 -83 54 -119 13 -88 11 -135
-12 -241 -20 -95 -4 -115 69 -85 14 6 17 2 17 -24 0 -17 6 -32 13 -33 36 -4
43 -3 55 5 7 5 25 17 41 26 56 31 111 76 232 190 86 80 76 74 254 166 83 43
157 83 165 89 8 7 32 19 52 28 25 12 56 43 95 95 100 135 96 134 88 18 -3 -55
-8 -122 -10 -150 -2 -27 -7 -94 -10 -148 -3 -54 -8 -123 -10 -155 l-5 -57 32
36 c18 20 47 54 65 75 l32 39 -4 -99 c-3 -55 -1 -95 3 -90 5 5 42 49 83 99
105 127 111 134 139 165 16 18 50 36 95 50 39 12 77 24 85 27 20 8 28 10 44
12 7 0 30 12 50 26 l37 25 -7 -63 c-32 -295 21 -486 160 -575 22 -14 43 -27
45 -29 2 -2 -10 -45 -27 -95 -25 -72 -33 -115 -36 -193 -3 -55 -5 -103 -5
-107 -1 -8 -202 -172 -229 -187 -11 -7 -14 -39 -15 -172 l-1 -164 60 -36 c33
-20 86 -51 118 -68 33 -17 65 -36 72 -42 7 -6 21 -12 31 -14 10 -2 18 -4 18
-5 0 -1 25 -2 56 -3 55 -3 56 -3 213 -131 101 -82 162 -126 172 -122 9 4 39
-14 77 -44 l61 -50 22 21 c17 16 26 18 41 11 14 -8 30 -5 64 9 l44 20 -40 -43
c-22 -23 -42 -45 -45 -48 -32 -31 -87 -111 -123 -179 l-45 -84 -59 -2 c-76 -2
-119 -12 -165 -38 -72 -39 -98 -146 -59 -234 23 -49 51 -66 97 -61 29 3 34 1
39 -22 3 -14 17 -39 32 -54 23 -25 31 -28 69 -23 27 3 55 15 74 31 l32 26 21
-27 c12 -16 35 -39 50 -52 51 -43 80 -129 93 -273 3 -40 8 -75 10 -77 1 -2 29
22 60 53 55 54 66 59 70 33 14 -84 17 -109 19 -152 2 -27 3 -51 4 -52 1 -1 46
42 100 96 55 54 137 132 183 173 46 42 99 90 118 108 45 40 90 73 90 65 0 -22
-147 -194 -279 -326 -162 -162 -270 -253 -406 -344 -45 -30 -96 -72 -113 -95
-36 -44 -79 -70 -120 -74 -34 -2 -133 60 -179 113 -49 58 -125 84 -223 78 -81
-6 -94 -8 -178 -32 -117 -34 -315 -131 -482 -235 -211 -132 -433 -298 -455
-340 -37 -71 -153 -141 -253 -153 -23 -2 -45 -6 -47 -9 -3 -2 -6 -51 -7 -107
-1 -56 -6 -105 -11 -108 -5 -3 -36 -12 -69 -19 -134 -31 -306 -143 -450 -291
-42 -43 -93 -88 -113 -98 -104 -56 -224 -187 -284 -310 -64 -130 -64 -129 -65
-302 -2 -179 5 -157 -81 -251 -57 -62 -59 -68 -60 -153 l-1 -77 -94 -142 c-79
-118 -95 -150 -96 -184 -3 -104 -5 -192 -5 -203 1 -8 10 -9 33 -2 18 5 36 9
39 9 4 0 6 -48 4 -106 -2 -75 1 -104 9 -101 6 2 124 37 261 76 138 40 257 75
265 77 8 3 15 5 15 4 0 -1 12 3 28 9 15 6 38 13 50 15 12 2 41 11 65 20 23 8
42 13 42 9 0 -3 7 0 15 7 8 7 15 9 15 5 0 -4 6 -2 13 4 8 6 17 8 20 4 4 -3 12
-1 20 5 7 6 24 12 37 14 14 2 30 7 37 11 6 4 23 8 37 9 14 1 26 7 26 12 0 5 3
7 6 3 4 -3 22 0 40 8 19 8 34 12 34 10 0 -2 18 2 40 10 22 8 40 12 40 8 0 -3
6 -1 13 5 6 5 28 13 47 18 49 11 49 11 55 14 3 1 8 3 13 4 40 9 80 29 77 39
-5 14 -13 73 -21 137 -3 25 -9 62 -15 83 -6 21 -12 50 -14 65 -1 15 -11 56
-20 92 -9 36 -18 70 -20 75 -29 124 -94 303 -159 436 l-33 66 19 59 c25 79 43
116 95 197 69 107 198 228 303 282 29 15 44 14 46 -3 2 -20 24 -60 39 -72 70
-58 200 -45 410 40 20 8 43 16 57 19 4 1 23 8 43 17 19 8 38 14 42 14 5 0 22
5 39 10 18 6 47 13 65 15 19 2 57 7 84 11 28 5 104 7 170 6 176 -3 216 -2 260
4 47 6 80 12 80 14 0 1 7 3 15 5 8 1 35 9 60 16 25 7 48 13 53 15 4 1 9 3 12
4 3 1 8 3 13 4 47 13 112 32 182 56 47 15 156 51 244 79 149 49 252 90 286
116 8 7 33 19 55 27 22 9 70 30 107 47 36 17 68 31 71 31 2 0 25 9 51 20 25
12 49 21 53 22 5 0 31 9 58 20 28 11 55 21 60 23 6 1 17 4 25 7 21 8 121 37
145 43 11 2 38 9 60 14 50 12 53 9 18 -18 -15 -11 -32 -24 -38 -29 -71 -56
-190 -116 -309 -157 -112 -38 -106 -30 -107 -150 -1 -142 27 -234 86 -283 38
-31 36 -7 20 -332 -4 -80 -8 -176 -10 -213 -1 -37 -6 -72 -11 -77 -5 -5 -91
-41 -191 -80 -101 -39 -185 -75 -187 -78 -3 -6 -8 -47 -22 -216 l-5 -59 -107
-116 c-143 -155 -177 -192 -201 -220 -15 -17 -24 -21 -33 -14 -7 5 -56 42
-109 81 l-96 71 -134 3 c-108 3 -134 7 -135 18 -1 8 -2 25 -3 37 -3 58 -137
48 -339 -26 -57 -21 -97 -29 -148 -30 -72 -1 -165 -21 -214 -46 -26 -14 -83
-66 -118 -109 -33 -41 -54 -131 -55 -236 -2 -114 3 -158 27 -264 13 -54 14
-81 7 -120 -28 -141 -36 -242 -35 -421 2 -218 40 -361 121 -455 16 -19 38 -57
48 -85 22 -60 52 -110 94 -156 24 -25 31 -43 31 -74 1 -22 3 -87 6 -145 l6
-106 -116 -78 c-64 -43 -116 -83 -117 -90 0 -6 -2 -101 -4 -211 -2 -110 -6
-340 -9 -512 l-6 -312 36 -93 c151 -389 281 -819 319 -1053 19 -118 22 -138
30 -220 3 -33 8 -80 11 -105 3 -25 8 -61 10 -80 9 -76 60 -267 89 -335 7 -16
34 -78 59 -138 70 -159 136 -363 139 -424 0 -9 6 -9 20 -1 21 11 37 -3 37 -32
0 -9 4 -20 9 -25 11 -12 57 -174 67 -232 l6 -42 27 17 c29 19 105 87 130 116
9 10 23 26 32 35 21 20 89 127 89 139 0 4 5 13 11 19 12 12 38 84 59 163 7 25
14 89 15 143 l3 97 99 98 c243 237 338 447 294 653 0 3 -33 38 -73 77 -76 76
-71 64 -77 187 -1 12 -145 164 -362 381 -320 320 -361 365 -355 386 4 12 9 37
12 53 3 17 7 31 7 32 1 0 35 -29 75 -67 l74 -68 -1 -66 c0 -76 -13 -59 148
-206 45 -41 102 -93 125 -115 62 -57 223 -205 279 -256 26 -24 76 -70 109
-101 34 -32 63 -56 65 -54 2 2 5 12 8 22 2 11 15 62 29 114 14 53 27 107 30
120 3 14 28 113 56 220 28 107 53 206 56 220 3 14 14 59 25 100 11 41 22 86
25 100 3 14 12 48 20 76 8 28 17 61 19 74 2 13 11 46 19 74 8 28 17 71 21 96
6 51 12 85 16 85 1 0 3 14 4 30 1 17 5 46 9 65 4 19 9 51 13 70 3 19 7 44 9
55 27 145 36 204 38 232 1 12 4 25 7 28 4 3 -23 33 -58 68 -78 76 -116 129
-111 156 2 13 -16 39 -56 80 -54 57 -60 75 -17 52 10 -6 29 -11 44 -13 14 -2
29 -6 32 -10 3 -3 23 -2 45 2 22 4 40 6 40 3 0 -2 17 5 38 16 78 40 139 123
183 250 18 50 51 215 64 309 12 100 15 120 19 167 10 97 15 161 21 245 4 47 8
112 11 145 2 33 6 83 8 110 7 98 18 220 22 250 5 31 8 56 18 139 3 27 10 74
16 105 6 31 13 70 15 86 11 58 55 231 81 315 14 47 26 91 27 98 0 6 5 12 10
12 6 0 8 3 5 6 -4 3 0 22 9 42 8 20 16 43 18 52 2 10 13 47 24 85 12 37 23 77
25 89 3 11 18 75 35 141 33 132 82 353 100 455 7 36 16 83 21 105 5 22 14 69
19 105 6 36 13 76 16 90 3 14 8 43 11 65 3 22 8 51 10 65 10 52 31 192 39 250
2 14 6 39 9 55 4 29 13 99 22 175 2 19 6 51 9 70 16 108 22 225 30 630 5 222
11 416 20 635 10 260 16 420 19 518 2 54 6 100 9 104 4 3 2 13 -3 23 -5 10 -7
20 -3 23 3 4 7 48 9 99 1 51 6 152 10 223 8 165 8 200 0 255 -9 55 -46 137
-76 169 -28 29 -116 71 -150 71 -14 0 -45 14 -69 30 -24 17 -47 30 -51 30 -4
0 13 20 37 45 66 69 88 143 64 208 -11 28 -62 82 -111 117 -55 39 -169 160
-208 220 -53 82 -107 204 -137 305 -45 159 -118 284 -193 333 -13 8 -46 16
-75 16 -35 2 -63 9 -87 25 -29 18 -45 21 -91 18 -55 -5 -56 -5 -51 21 10 53
-58 123 -158 162 -79 30 -259 119 -313 153 -32 20 -61 37 -66 37 -5 0 -11 3
-13 8 -1 4 -32 27 -68 51 -172 118 -322 261 -481 459 -6 7 -47 67 -91 135 -80
120 -165 229 -201 255 -10 8 -25 21 -35 31 -62 63 -181 94 -350 92 -33 0 -64
6 -85 18 -17 10 -59 33 -92 51 -33 18 -153 86 -267 151 -114 66 -212 119 -217
119 -5 0 -11 4 -13 8 -6 15 -138 83 -201 104 -48 16 -91 21 -187 23 -69 1
-143 -2 -165 -6z m-1657 -1450 c-9 -122 -106 -247 -213 -273 -56 -14 -152 -75
-228 -146 -94 -87 -186 -203 -305 -381 -128 -191 -234 -285 -340 -304 -36 -6
-96 8 -126 31 -18 12 -18 17 -6 53 17 52 87 130 163 185 104 73 121 80 235 91
29 2 63 10 75 16 37 19 75 68 97 126 45 120 119 207 220 258 48 24 51 28 45
53 -11 40 -8 68 14 110 23 45 107 129 181 179 30 21 57 40 60 44 5 5 64 33 90
42 27 9 42 -24 38 -84z m4428 -766 c-3 -14 -8 -47 -11 -72 -4 -25 -8 -62 -11
-81 -6 -44 -44 -109 -87 -147 -19 -16 -73 -56 -121 -89 -48 -32 -96 -65 -106
-72 -17 -12 -19 -10 -25 25 -4 21 -10 52 -14 68 -4 17 -7 54 -6 84 1 44 6 57
26 72 41 32 44 34 59 37 18 3 113 45 120 52 3 3 21 17 40 30 19 14 58 46 85
72 28 26 51 48 53 48 1 0 0 -12 -2 -27z m-4496 -220 c0 -38 -40 -149 -75 -209
-36 -62 -162 -188 -240 -241 -117 -79 -273 -139 -325 -126 -18 5 -25 43 -7 43
4 0 6 4 3 8 -6 11 13 31 169 177 165 154 190 178 261 246 58 56 137 111 162
115 8 2 16 5 20 8 15 15 32 4 32 -21z m4360 -917 c0 -14 -5 -37 -12 -53 l-11
-28 -7 35 c-6 36 3 70 20 70 6 0 10 -11 10 -24z m-5116 -2108 c-3 -35 -8 -65
-11 -68 -6 -7 -107 -29 -112 -25 -2 2 21 32 50 67 30 34 59 68 64 75 16 19 16
17 9 -49z m6480 -276 c6 -10 -55 -102 -67 -102 -5 0 -6 17 -3 38 3 20 5 45 6
55 0 12 8 17 29 17 17 0 32 -4 35 -8z"/>
</g>
</svg>
