{
  "accessors": [
    {
      "bufferView": 2,
      "componentType": 5126,
      "count": 494,
      "max": [
        0.06043966859579086,
        0.05505611374974251,
        1.6199089288711548
      ],
      "min": [
        -0.056494154036045074,
        -0.06187790259718895,
        -0.027241859585046768
      ],
      "type": "VEC3"
    },
    {
      "bufferView": 2,
      "byteOffset": 5928,
      "componentType": 5126,
      "count": 494,
      "max": [
        0.99992835521698,
        0.9999929070472717,
        0.12404638528823853
      ],
      "min": [
        -0.9999566674232483,
        -0.9999739527702332,
        -0.06835098564624786
      ],
      "type": "VEC3"
    },
    {
      "bufferView": 1,
      "componentType": 5126,
      "count": 494,
      "max": [
        0.746342658996582,
        0.7386549115180969
      ],
      "min": [
        0.6321133375167847,
        0.10619918256998062
      ],
      "type": "VEC2"
    },
    {
      "bufferView": 0,
      "componentType": 5125,
      "count": 1728,
      "type": "SCALAR"
    },
    {
      "bufferView": 2,
      "byteOffset": 11856,
      "componentType": 5126,
      "count": 5802,
      "max": [
        0.5501866936683655,
        0.21591389179229736,
        1.625955581665039
      ],
      "min": [
        -0.7421583533287048,
        -0.18617437779903412,
        0.6450386643409729
      ],
      "type": "VEC3"
    },
    {
      "bufferView": 2,
      "byteOffset": 81480,
      "componentType": 5126,
      "count": 5802,
      "max": [
        0.9999826550483704,
        0.9999865889549255,
        0.9990800619125366
      ],
      "min": [
        -0.9999998807907104,
        -0.9999217987060547,
        -0.9978369474411011
      ],
      "type": "VEC3"
    },
    {
      "bufferView": 1,
      "byteOffset": 3952,
      "componentType": 5126,
      "count": 5802,
      "max": [
        0.9969134330749512,
        0.9306568503379822
      ],
      "min": [
        0.002172166248783469,
        0.0021713904570788145
      ],
      "type": "VEC2"
    },
    {
      "bufferView": 0,
      "byteOffset": 6912,
      "componentType": 5125,
      "count": 29679,
      "type": "SCALAR"
    },
    {
      "bufferView": 2,
      "byteOffset": 151104,
      "componentType": 5126,
      "count": 1791,
      "max": [
        0.38516244292259216,
        0.09729956835508347,
        1.4230066537857056
      ],
      "min": [
        -0.3815416395664215,
        -0.06725681573152542,
        0.8979668021202087
      ],
      "type": "VEC3"
    },
    {
      "bufferView": 2,
      "byteOffset": 172596,
      "componentType": 5126,
      "count": 1791,
      "max": [
        0.999270498752594,
        0.9987927675247192,
        0.999996542930603
      ],
      "min": [
        -0.9992676377296448,
        -0.9987260103225708,
        -0.9974266886711121
      ],
      "type": "VEC3"
    },
    {
      "bufferView": 1,
      "byteOffset": 50368,
      "componentType": 5126,
      "count": 1791,
      "max": [
        0.99783855676651,
        0.9831723570823669
      ],
      "min": [
        0.0021664509549736977,
        0.5714317560195923
      ],
      "type": "VEC2"
    },
    {
      "bufferView": 0,
      "byteOffset": 125628,
      "componentType": 5125,
      "count": 7596,
      "type": "SCALAR"
    },
    {
      "bufferView": 2,
      "byteOffset": 194088,
      "componentType": 5126,
      "count": 405,
      "max": [
        0.18824370205402374,
        0.18172599375247955,
        1.8479772806167603
      ],
      "min": [
        -0.18349067866802216,
        -0.1923145353794098,
        1.5089079141616821
      ],
      "type": "VEC3"
    },
    {
      "bufferView": 2,
      "byteOffset": 198948,
      "componentType": 5126,
      "count": 405,
      "max": [
        0.9998170733451843,
        0.9995669722557068,
        0.814866840839386
      ],
      "min": [
        -0.9998170733451843,
        -0.9988342523574829,
        -0.9975733160972595
      ],
      "type": "VEC3"
    },
    {
      "bufferView": 1,
      "byteOffset": 64696,
      "componentType": 5126,
      "count": 405,
      "max": [
        0.8663608431816101,
        0.8073853254318237
      ],
      "min": [
        0.17328894138336182,
        0.409620076417923
      ],
      "type": "VEC2"
    },
    {
      "bufferView": 0,
      "byteOffset": 156012,
      "componentType": 5125,
      "count": 1920,
      "type": "SCALAR"
    },
    {
      "bufferView": 2,
      "byteOffset": 203808,
      "componentType": 5126,
      "count": 3337,
      "max": [
        0.7067540287971497,
        0.21236255764961243,
        1.9404293298721313
      ],
      "min": [
        -0.7424392104148865,
        -0.18706856667995453,
        1.1513041257858276
      ],
      "type": "VEC3"
    },
    {
      "bufferView": 2,
      "byteOffset": 243852,
      "componentType": 5126,
      "count": 3337,
      "max": [
        0.9992061257362366,
        0.9996467232704163,
        0.9999188184738159
      ],
      "min": [
        -0.9992063045501709,
        -0.9996466636657715,
        -0.9995265603065491
      ],
      "type": "VEC3"
    },
    {
      "bufferView": 1,
      "byteOffset": 67936,
      "componentType": 5126,
      "count": 3337,
      "max": [
        0.9860302209854126,
        0.9881255030632019
      ],
      "min": [
        0.002166133373975754,
        0.10618873685598373
      ],
      "type": "VEC2"
    },
    {
      "bufferView": 0,
      "byteOffset": 163692,
      "componentType": 5125,
      "count": 12810,
      "type": "SCALAR"
    },
    {
      "bufferView": 2,
      "byteOffset": 283896,
      "componentType": 5126,
      "count": 417,
      "max": [
        0.09003789722919464,
        -0.15599770843982697,
        1.7263457775115967
      ],
      "min": [
        -0.08541147410869598,
        -0.19902372360229492,
        1.5782216787338257
      ],
      "type": "VEC3"
    },
    {
      "bufferView": 2,
      "byteOffset": 288900,
      "componentType": 5126,
      "count": 417,
      "max": [
        0.9987314939498901,
        0.9988863468170166,
        0.999085545539856
      ],
      "min": [
        -0.9987314939498901,
        -0.9898358583450317,
        -0.9916191101074219
      ],
      "type": "VEC3"
    },
    {
      "bufferView": 1,
      "byteOffset": 94632,
      "componentType": 5126,
      "count": 417,
      "max": [
        0.9738378524780273,
        0.22406834363937378
      ],
      "min": [
        0.8540982604026794,
        0.10619106143712997
      ],
      "type": "VEC2"
    },
    {
      "bufferView": 0,
      "byteOffset": 214932,
      "componentType": 5125,
      "count": 1596,
      "type": "SCALAR"
    },
    {
      "bufferView": 2,
      "byteOffset": 293904,
      "componentType": 5126,
      "count": 1082,
      "max": [
        0.43561944365501404,
        0.4378683567047119,
        2.1836304664611816
      ],
      "min": [
        -0.43086615204811096,
        -0.42148101329803467,
        1.7064130306243896
      ],
      "type": "VEC3"
    },
    {
      "bufferView": 2,
      "byteOffset": 306888,
      "componentType": 5126,
      "count": 1082,
      "max": [
        0.998892605304718,
        0.9999539256095886,
        0.9999580383300781
      ],
      "min": [
        -0.9866528511047363,
        -0.9999789595603943,
        -0.9972684383392334
      ],
      "type": "VEC3"
    },
    {
      "bufferView": 1,
      "byteOffset": 97968,
      "componentType": 5126,
      "count": 1082,
      "max": [
        0.9885746240615845,
        0.6565499305725098
      ],
      "min": [
        0.0021618648897856474,
        0.0021740151569247246
      ],
      "type": "VEC2"
    },
    {
      "bufferView": 0,
      "byteOffset": 221316,
      "componentType": 5125,
      "count": 4896,
      "type": "SCALAR"
    }
  ],
  "asset": {
    "extras": {
      "author": "Ünal Altındağ (https://sketchfab.com/unalaltindag)",
      "license": "CC-BY-4.0 (http://creativecommons.org/licenses/by/4.0/)",
      "source": "https://sketchfab.com/3d-models/scarecrow-ca9c0ac1cbff43bfb341583f499a8ce4",
      "title": "Scarecrow"
    },
    "generator": "Sketchfab-15.22.0",
    "version": "2.0"
  },
  "bufferViews": [
    {
      "buffer": 0,
      "byteLength": 240900,
      "name": "floatBufferViews",
      "target": 34963
    },
    {
      "buffer": 0,
      "byteLength": 106624,
      "byteOffset": 240900,
      "byteStride": 8,
      "name": "floatBufferViews",
      "target": 34962
    },
    {
      "buffer": 0,
      "byteLength": 319872,
      "byteOffset": 347524,
      "byteStride": 12,
      "name": "floatBufferViews",
      "target": 34962
    }
  ],
  "buffers": [
    {
      "byteLength": 667396,
      "uri": "scarecrow.bin"
    }
  ],
  "extensionsUsed": [
    "KHR_materials_specular"
  ],
  "materials": [
    {
      "doubleSided": true,
      "extensions": {
        "KHR_materials_specular": {
          "specularColorFactor": [
            1.0,
            1.0,
            1.0
          ],
          "specularFactor": 0.01
        }
      },
      "name": "wood",
      "pbrMetallicRoughness": {
        "baseColorFactor": [
          0.05355771417190985,
          0.01627413179999707,
          0.0032050617362894746,
          1.0
        ],
        "metallicFactor": 0.0,
        "roughnessFactor": 0.6
      }
    },
    {
      "doubleSided": true,
      "extensions": {
        "KHR_materials_specular": {
          "specularColorFactor": [
            1.0,
            1.0,
            1.0
          ],
          "specularFactor": 0.01
        }
      },
      "name": "cloth",
      "pbrMetallicRoughness": {
        "baseColorFactor": [
          0.016664756229874,
          0.016928269330324583,
          0.002377607390071022,
          1.0
        ],
        "metallicFactor": 0.0,
        "roughnessFactor": 0.6
      }
    },
    {
      "doubleSided": true,
      "extensions": {
        "KHR_materials_specular": {
          "specularColorFactor": [
            1.0,
            1.0,
            1.0
          ],
          "specularFactor": 0.01
        }
      },
      "name": "rope",
      "pbrMetallicRoughness": {
        "baseColorFactor": [
          0.00884911,
          0.00580552,
          0.00140286,
          1.0
        ],
        "metallicFactor": 0.0,
        "roughnessFactor": 0.6
      }
    },
    {
      "doubleSided": true,
      "extensions": {
        "KHR_materials_specular": {
          "specularColorFactor": [
            1.0,
            1.0,
            1.0
          ],
          "specularFactor": 0.01
        }
      },
      "name": "head",
      "pbrMetallicRoughness": {
        "baseColorFactor": [
          0.0692389334608928,
          0.03079913572826579,
          0.01142176488214846,
          1.0
        ],
        "metallicFactor": 0.0,
        "roughnessFactor": 0.6
      }
    },
    {
      "doubleSided": true,
      "extensions": {
        "KHR_materials_specular": {
          "specularColorFactor": [
            1.0,
            1.0,
            1.0
          ],
          "specularFactor": 0.01
        }
      },
      "name": "hand",
      "pbrMetallicRoughness": {
        "baseColorFactor": [
          0.174354478881369,
          0.046073957114497625,
          0.006368689546182509,
          1.0
        ],
        "metallicFactor": 0.0,
        "roughnessFactor": 0.6
      }
    },
    {
      "doubleSided": true,
      "extensions": {
        "KHR_materials_specular": {
          "specularColorFactor": [
            1.0,
            1.0,
            1.0
          ],
          "specularFactor": 0.08765962239749814
        }
      },
      "name": "eyes",
      "pbrMetallicRoughness": {
        "baseColorFactor": [
          0.0,
          0.0,
          0.0,
          1.0
        ],
        "metallicFactor": 0.0,
        "roughnessFactor": 0.2387635528431966
      }
    },
    {
      "doubleSided": true,
      "extensions": {
        "KHR_materials_specular": {
          "specularColorFactor": [
            1.0,
            1.0,
            1.0
          ],
          "specularFactor": 0.01
        }
      },
      "name": "material",
      "pbrMetallicRoughness": {
        "baseColorFactor": [
          0.030255845483245496,
          0.005492136810195895,
          0.0009518419816366609,
          1.0
        ],
        "metallicFactor": 0.0,
        "roughnessFactor": 0.6
      }
    }
  ],
  "meshes": [
    {
      "name": "scarecrow_wood_0",
      "primitives": [
        {
          "attributes": {
            "NORMAL": 1,
            "POSITION": 0,
            "TEXCOORD_0": 2
          },
          "indices": 3,
          "material": 0,
          "mode": 4
        }
      ]
    },
    {
      "name": "scarecrow_cloth_0",
      "primitives": [
        {
          "attributes": {
            "NORMAL": 5,
            "POSITION": 4,
            "TEXCOORD_0": 6
          },
          "indices": 7,
          "material": 1,
          "mode": 4
        }
      ]
    },
    {
      "name": "scarecrow_rope_0",
      "primitives": [
        {
          "attributes": {
            "NORMAL": 9,
            "POSITION": 8,
            "TEXCOORD_0": 10
          },
          "indices": 11,
          "material": 2,
          "mode": 4
        }
      ]
    },
    {
      "name": "scarecrow_head_0",
      "primitives": [
        {
          "attributes": {
            "NORMAL": 13,
            "POSITION": 12,
            "TEXCOORD_0": 14
          },
          "indices": 15,
          "material": 3,
          "mode": 4
        }
      ]
    },
    {
      "name": "scarecrow_hand_0",
      "primitives": [
        {
          "attributes": {
            "NORMAL": 17,
            "POSITION": 16,
            "TEXCOORD_0": 18
          },
          "indices": 19,
          "material": 4,
          "mode": 4
        }
      ]
    },
    {
      "name": "scarecrow_eyes_0",
      "primitives": [
        {
          "attributes": {
            "NORMAL": 21,
            "POSITION": 20,
            "TEXCOORD_0": 22
          },
          "indices": 23,
          "material": 5,
          "mode": 4
        }
      ]
    },
    {
      "name": "scarecrow_hat_0",
      "primitives": [
        {
          "attributes": {
            "NORMAL": 25,
            "POSITION": 24,
            "TEXCOORD_0": 26
          },
          "indices": 27,
          "material": 6,
          "mode": 4
        }
      ]
    }
  ],
  "nodes": [
    {
      "children": [
        1
      ],
      "matrix": [
        1.0,
        0.0,
        0.0,
        0.0,
        0.0,
        2.220446049250313e-16,
        -1.0,
        0.0,
        0.0,
        1.0,
        2.220446049250313e-16,
        0.0,
        0.0,
        0.0,
        0.0,
        1.0
      ],
      "name": "Sketchfab_model"
    },
    {
      "children": [
        2
      ],
      "matrix": [
        0.009999999776482582,
        0.0,
        0.0,
        0.0,
        0.0,
        0.0,
        0.009999999776482582,
        0.0,
        0.0,
        -0.009999999776482582,
        0.0,
        0.0,
        0.0,
        0.0,
        0.0,
        1.0
      ],
      "name": "9a85c04c22b24e2e840907c7527ca859.fbx"
    },
    {
      "children": [
        3
      ],
      "name": "RootNode"
    },
    {
      "children": [
        4,
        5,
        6,
        7,
        8,
        9,
        10
      ],
      "matrix": [
        126.15648179352284,
        -1.6005913869815984,
        1.0232023282923899,
        0.0,
        1.0491868159986733,
        2.0523757619013256,
        -126.14973491958948,
        0.0,
        1.5836802878993868,
        126.14394365231986,
        2.0654530039842944,
        0.0,
        -2.9103830456733704e-09,
        0.0,
        0.0,
        1.0
      ],
      "name": "scarecrow"
    },
    {
      "mesh": 0,
      "name": "scarecrow_wood_0"
    },
    {
      "mesh": 1,
      "name": "scarecrow_cloth_0"
    },
    {
      "mesh": 2,
      "name": "scarecrow_rope_0"
    },
    {
      "mesh": 3,
      "name": "scarecrow_head_0"
    },
    {
      "mesh": 4,
      "name": "scarecrow_hand_0"
    },
    {
      "mesh": 5,
      "name": "scarecrow_eyes_0"
    },
    {
      "mesh": 6,
      "name": "scarecrow_hat_0"
    }
  ],
  "scene": 0,
  "scenes": [
    {
      "name": "Sketchfab_Scene",
      "nodes": [
        0
      ]
    }
  ]
}
